<?xml version="1.0" encoding="iso-8859-1"?>
<!-- Uploaded to: SVG Repo, www.svgrepo.com, Generator: SVG Repo Mixer Tools -->
<svg height="800px" width="800px" version="1.1" id="Layer_1" xmlns="http://www.w3.org/2000/svg" xmlns:xlink="http://www.w3.org/1999/xlink" 
	 viewBox="0 0 511.784 511.784" xml:space="preserve">
<g transform="translate(1 1)">
	<g>
		<path style="fill:#FFDD09;" d="M357.184,361.447c-237.227-45.227-240.64-157.013-235.52-179.2c4.267-17.067-5.12-43.52-5.12-43.52
			c-5.973-17.067,3.413-40.96,10.24-52.053c0,0-29.867,22.187-29.013,51.2c0,0,0.853,27.307-8.533,42.667
			c-11.093,18.773-40.107,118.613,144.213,227.84c55.467,6.827,105.813-7.68,124.587-14.507c5.12-1.707,8.533-5.973,8.533-11.947
			v-7.68C367.424,367.42,363.158,362.3,357.184,361.447"/>
		<path style="fill:#FFDD09;" d="M443.371,316.22l-1.707-7.68c-0.853-5.973-6.827-10.24-12.8-10.24
			c-241.493,5.973-267.947-103.253-267.947-126.293c0-17.92-13.653-40.107-13.653-40.107c-15.36-24.747,13.653-70.827,13.653-70.827
			c-13.653-12.8-39.253,0-49.493,3.413l0,0l2.56,3.413c5.12,4.267,10.24,10.24,12.8,18.773c-5.973,10.24-13.653,29.013-11.947,43.52
			c0,1.707,0.853,6.827,1.707,8.533c0,0,8.533,25.6,5.12,43.52c-5.12,22.187-1.707,133.973,235.52,179.2
			c0.853,0,1.707,0.853,2.56,0.853c36.693-9.387,65.707-25.6,78.507-33.28C442.518,326.46,444.224,321.34,443.371,316.22"/>
	</g>
	<path style="fill:#FD9808;" d="M160.918,61.074c0,0-29.013,46.08-13.653,70.827c0,0,13.653,22.187,13.653,40.107
		c0,23.04,26.453,132.267,268.8,126.293c0,0,0,0,0.853,0c33.28-17.067,58.027-38.4,68.267-48.64c3.413-3.413,5.12-9.387,2.56-13.653
		l-3.413-6.827c-2.56-5.12-8.533-8.533-14.507-6.827c-234.667,56.32-284.16-45.227-288.427-67.413
		c-3.413-17.92-22.187-36.693-22.187-36.693C152.384,96.914,160.918,61.074,160.918,61.074"/>
	<g>
		<path style="fill:#1CD759;" d="M478.358,266.727c8.533-6.827,15.36-12.8,19.627-17.067c3.413-3.413,5.12-9.387,2.56-13.653
			l-3.413-6.827c-2.56-5.973-8.533-8.533-14.507-6.827c-8.533,1.707-17.067,4.267-24.747,5.973L478.358,266.727z"/>
		<path style="fill:#1CD759;" d="M406.678,345.234c13.653-5.973,24.747-11.947,31.573-16.213c4.267-2.56,6.827-7.68,5.973-12.8
			l-1.707-7.68c-0.853-5.973-6.827-10.24-12.8-10.24c-11.093,0-22.187,0-32.427,0L406.678,345.234z"/>
		<path style="fill:#1CD759;" d="M357.184,361.447c-8.533-1.707-17.067-3.413-25.6-5.12v45.227c11.947-2.56,20.48-5.973,27.307-7.68
			c5.12-1.707,8.533-5.973,8.533-11.947v-7.68C367.424,367.42,363.158,362.3,357.184,361.447"/>
	</g>
	<path id="SVGCleanerId_0" style="fill:#1CD759;" d="M259.051,422.887c-9.387-5.12-17.067-9.387-25.6-14.507l-16.213,42.667
		c14.507,1.707,26.453,2.56,33.28,2.56c5.12,0,10.24-3.413,11.947-8.533l2.56-7.68C266.731,431.42,264.171,425.447,259.051,422.887"
		/>
	<path style="fill:#FFFFFF;" d="M265.024,437.394l-2.56,7.68c-1.707,5.12-5.973,8.533-11.947,8.533
		c-48.64-0.853-297.813-26.453-232.96-290.133c4.267-17.067,13.653-33.28,29.867-40.107c6.827-2.56,15.36-4.267,24.747-2.56
		c0,0,15.36-19.627,17.067-59.733c0,0,29.013-1.707,37.547,25.6c0,0-29.867,22.187-29.013,51.2c0,0,0.853,27.307-8.533,42.667
		c-11.947,19.627-42.667,127.147,169.813,242.347C264.171,425.447,266.731,431.42,265.024,437.394"/>
	<path style="fill:#FFDD09;" d="M256.491,437.394l-1.707,7.68c-1.707,5.12-5.12,8.533-10.24,8.533
		c-42.667-0.853-267.093-26.453-211.627-290.133c3.413-17.067,11.947-33.28,25.6-40.107c5.973-2.56,13.653-4.267,21.333-2.56
		c0,0,13.653-19.627,14.507-59.733c0,0,24.747-1.707,32.427,25.6c0,0-25.6,22.187-25.6,51.2c0,0,0.853,27.307-7.68,42.667
		c-8.533,18.773-26.453,127.147,157.867,242.347C256.491,425.447,258.198,431.42,256.491,437.394"/>
	<g>
		<path id="SVGCleanerId_0_1_" style="fill:#1CD759;" d="M259.051,422.887c-9.387-5.12-17.067-9.387-25.6-14.507l-16.213,42.667
			c14.507,1.707,26.453,2.56,33.28,2.56c5.12,0,10.24-3.413,11.947-8.533l2.56-7.68C266.731,431.42,264.171,425.447,259.051,422.887
			"/>
	</g>
	<path d="M251.371,462.14L251.371,462.14c-7.68,0-47.787-0.853-94.72-15.36c-51.2-16.213-91.307-41.813-117.76-75.947
		C-1.216,318.78-11.456,248.807,9.878,162.62c5.12-22.187,17.92-38.4,34.133-46.08c7.68-4.267,16.213-5.973,23.893-5.12
		c4.267-6.827,11.947-23.893,12.8-51.2c0-4.267,3.413-7.68,7.68-7.68c12.8-1.707,38.4,4.267,46.933,31.573
		c0.853,3.413,0,7.68-3.413,9.387c0,0-26.453,19.627-25.6,43.52c0,0.853,0.853,29.867-9.387,46.933
		c-0.853,0.853-14.507,24.747-3.413,64c11.093,40.107,49.493,101.547,169.813,166.4c9.387,5.12,12.8,15.36,10.24,24.747l-2.56,7.68
		C267.584,456.167,259.904,462.14,251.371,462.14z M65.344,128.487c-5.12,0-9.387,0.853-14.507,3.413
		c-16.213,6.827-22.187,24.747-24.747,34.133C6.464,247.1,14.998,311.954,51.691,359.74
		c64.853,82.773,193.707,85.333,198.827,85.333c0.853,0,2.56-0.853,3.413-2.56l2.56-7.68l0,0c0.853-1.707,0-3.413-1.707-5.12
		C129.344,361.447,88.384,295.74,76.438,252.22c-12.8-46.08,3.413-74.24,5.12-77.653c6.827-11.093,7.68-31.573,7.68-38.4
		c-0.853-23.893,17.92-43.52,27.307-52.053c-5.12-9.387-13.653-12.8-19.627-14.507c-3.413,36.693-17.92,55.467-17.92,55.467
		c-1.707,3.413-5.12,4.267-8.533,3.413C68.758,128.487,67.051,128.487,65.344,128.487z"/>
	<path d="M409.238,306.834c-128.853,0-192-34.987-221.867-64.853c-34.133-33.28-34.987-66.56-34.987-69.973
		c0-12.8-8.533-29.867-12.8-35.84c-17.067-28.16,10.24-74.24,13.653-79.36c2.56-3.413,6.827-5.12,10.24-3.413
		c4.267,1.707,5.973,5.973,5.12,9.387l0,0c0,0-6.827,32.427,9.387,49.493c0.853,0.853,20.48,21.333,24.747,40.96
		c0,0.853,5.973,28.16,40.96,50.347s104.96,41.813,237.227,9.387c10.24-2.56,20.48,2.56,23.893,11.947l3.413,6.827
		c3.413,8.533,1.707,17.92-5.12,23.893c-11.947,11.093-36.693,32.427-70.827,50.347c-1.707,0.853-2.56,0.853-5.12,0.853
		C422.038,306.834,415.211,306.834,409.238,306.834z M153.238,100.327c-2.56,10.24-3.413,20.48,0.853,27.307
		c0.853,0.853,15.36,23.893,15.36,44.373c0,9.387,5.973,34.133,29.867,58.027c29.867,29.013,93.013,63.147,228.693,59.733
		c30.72-16.213,53.76-35.84,64.853-46.08c0.853-1.707,0.853-3.413,0.853-5.12l-3.413-6.827c-0.853-1.707-2.56-2.56-4.267-2.56
		c-138.24,34.133-212.48,12.8-250.027-11.947c-40.107-25.6-47.787-57.173-48.64-61.44c-2.56-11.947-15.36-27.307-20.48-32.427
		C159.211,117.394,155.798,108.86,153.238,100.327z M160.918,61.074L160.918,61.074L160.918,61.074z"/>
	<path d="M478.358,275.26c-0.853,0-0.853,0-1.707,0c-2.56-0.853-4.267-2.56-5.973-4.267l-19.627-40.107
		c-0.853-2.56-0.853-5.12,0-7.68c0.853-2.56,3.413-4.267,5.973-4.267c7.68-1.707,16.213-3.413,24.747-5.973
		c10.24-2.56,20.48,2.56,23.893,11.947l3.413,6.827c3.413,8.533,1.707,17.92-5.12,23.893c-3.413,3.413-10.24,9.387-20.48,17.067
		C482.624,274.407,480.918,275.26,478.358,275.26z M470.678,232.594l10.24,20.48c5.12-4.267,8.533-7.68,11.093-10.24
		c1.707-0.853,1.707-2.56,1.707-4.267l-3.413-6.827c-0.853-1.707-2.56-2.56-4.267-2.56
		C480.918,230.887,475.798,231.74,470.678,232.594z"/>
	<path d="M406.678,353.767c-1.707,0-2.56,0-4.267-0.853c-2.56-0.853-4.267-3.413-4.267-5.973l-9.387-46.933
		c-0.853-2.56,0-5.12,1.707-6.827s4.267-3.413,6.827-3.413c11.947,0,22.187,0,32.427,0s18.773,6.827,21.333,17.067l1.707,7.68
		c1.707,8.533-1.707,17.92-9.387,22.187c-6.827,4.267-17.92,10.24-32.427,17.067C409.238,353.767,407.531,353.767,406.678,353.767z
		 M407.531,306.834l5.12,26.453c8.533-4.267,16.213-8.533,20.48-11.093c1.707-0.853,1.707-2.56,1.707-4.267l-0.853-8.533
		c0-1.707-1.707-3.413-4.267-3.413C422.038,306.834,415.211,306.834,407.531,306.834z"/>
	<path d="M331.584,410.087c-1.707,0-3.413-0.853-5.12-1.707c-1.707-1.707-3.413-4.267-3.413-6.827v-45.227
		c0-2.56,0.853-5.12,3.413-6.827c1.707-1.707,4.267-2.56,6.827-1.707c7.68,1.707,16.213,3.413,24.747,5.12l0,0
		c10.24,1.707,17.067,11.093,17.067,21.333v7.68c0,8.533-5.973,17.067-14.507,19.627c-5.973,1.707-15.36,5.12-28.16,7.68
		C333.291,410.087,332.438,410.087,331.584,410.087z M340.118,366.567v23.04c6.827-1.707,11.947-3.413,15.36-5.12
		c1.707-0.853,2.56-1.707,2.56-3.413v-7.68c0-1.707-1.707-3.413-3.413-4.267l0,0C350.358,369.127,345.238,367.42,340.118,366.567z"
		/>
	<path d="M251.371,462.14L251.371,462.14c-5.12,0-17.067,0-34.987-2.56c-2.56,0-5.12-1.707-5.973-4.267
		c-1.707-2.56-1.707-5.12-0.853-7.68l16.213-42.667c0.853-2.56,2.56-4.267,5.12-5.12c2.56-0.853,5.12-0.853,6.827,0.853
		c9.387,5.12,17.067,10.24,25.6,14.507c9.387,5.12,12.8,15.36,10.24,24.747l-2.56,7.68
		C267.584,456.167,259.904,462.14,251.371,462.14z M229.184,443.367c11.093,0.853,18.773,1.707,21.333,1.707
		c0.853,0,2.56-0.853,3.413-2.56l2.56-7.68c0.853-1.707,0-3.413-1.707-5.12l0,0c-5.12-3.413-11.093-5.973-17.067-9.387
		L229.184,443.367z"/>
	<path d="M67.051,300.007c0,5.12-3.413,8.533-8.533,8.533s-8.533-3.413-8.533-8.533s3.413-8.533,8.533-8.533
		S67.051,294.887,67.051,300.007"/>
	<path d="M67.051,154.94c0,5.12-3.413,8.533-8.533,8.533s-8.533-3.413-8.533-8.533c0-5.12,3.413-8.533,8.533-8.533
		S67.051,149.82,67.051,154.94"/>
	<path d="M49.984,197.607c0,5.12-3.413,8.533-8.533,8.533s-8.533-3.413-8.533-8.533c0-5.12,3.413-8.533,8.533-8.533
		S49.984,192.487,49.984,197.607"/>
	<path d="M58.518,231.74c0,5.12-3.413,8.533-8.533,8.533s-8.533-3.413-8.533-8.533c0-5.12,3.413-8.533,8.533-8.533
		S58.518,226.62,58.518,231.74"/>
	<path d="M75.584,334.14c0,5.12-3.413,8.533-8.533,8.533s-8.533-3.413-8.533-8.533s3.413-8.533,8.533-8.533
		S75.584,329.02,75.584,334.14"/>
	<path d="M109.718,342.674c0,5.12-3.413,8.533-8.533,8.533s-8.533-3.413-8.533-8.533c0-5.12,3.413-8.533,8.533-8.533
		S109.718,337.554,109.718,342.674"/>
	<path d="M109.718,376.807c0,5.12-3.413,8.533-8.533,8.533s-8.533-3.413-8.533-8.533c0-5.12,3.413-8.533,8.533-8.533
		S109.718,371.687,109.718,376.807"/>
	<path d="M359.744,370.834c-0.853,0-2.56,0-3.413-0.853l-0.853-0.853c-139.947-26.453-198.827-76.8-223.573-114.347
		c-25.6-40.107-19.627-71.68-18.773-75.093c2.56-11.947-2.56-31.573-4.267-38.4c-0.853-2.56-1.707-8.533-2.56-10.24
		c-1.707-16.213,5.973-34.987,11.093-45.227c-1.707-4.267-5.12-8.533-8.533-11.093c-0.853-0.853-1.707-0.853-1.707-1.707
		l-2.56-3.413c-1.707-2.56-1.707-5.12-0.853-7.68c0.853-2.56,2.56-4.267,5.12-5.12l3.413-0.853c12.8-5.12,39.253-15.36,54.613-0.853
		c3.413,2.56,3.413,7.68,1.707,11.093c-6.827,11.947-23.893,45.227-13.653,61.44c0,0.853,14.507,23.893,14.507,44.373
		c0,9.387,5.973,34.133,29.867,58.027c29.867,29.013,93.867,63.147,230.4,59.733c0,0,0,0,0.853,0c10.24,0,18.773,6.827,20.48,17.067
		l1.707,7.68c1.707,8.533-1.707,17.92-9.387,22.187c-14.507,8.533-43.52,24.747-80.213,34.133
		C360.598,370.834,360.598,370.834,359.744,370.834z M125.931,67.9c3.413,4.267,6.827,10.24,8.533,16.213
		c0.853,2.56,0.853,5.12,0,6.827c-5.12,8.533-11.947,26.453-11.093,38.4c0,0.853,0.853,5.12,1.707,6.827
		c0,0.853,9.387,28.16,5.12,47.787c0,0.853-5.973,27.307,16.213,62.293c23.04,34.987,77.653,81.92,212.48,106.667
		c0.853,0,0.853,0,1.707,0c34.133-9.387,60.587-23.893,73.387-31.573c1.707-0.853,1.707-2.56,1.707-4.267l-1.707-7.68
		c0-1.707-1.707-3.413-4.267-3.413c-142.507,3.413-210.773-33.28-242.347-64.853c-34.133-33.28-34.987-66.56-34.987-69.973
		c0-12.8-8.533-29.867-12.8-35.84c-13.653-22.187,0.853-56.32,9.387-71.68C142.144,62.78,133.611,65.34,125.931,67.9z"/>
	<path d="M262.464,418.62c-9.387,0-19.627-0.853-29.867-1.707c-0.853,0-2.56-0.853-3.413-0.853
		C120.811,351.207,86.678,289.767,76.438,250.514c-11.093-44.373,4.267-71.68,5.973-74.24c6.827-11.093,7.68-31.573,7.68-38.4
		c-0.853-32.427,30.72-57.173,32.427-58.027c3.413-2.56,7.68-2.56,11.093,0.853c3.413,2.56,3.413,6.827,1.707,11.093
		c-8.533,11.947-15.36,31.573-11.093,44.373c0,0.853,9.387,28.16,5.12,47.787c0,0.853-5.973,27.307,16.213,62.293
		c23.04,34.987,77.653,81.92,212.48,106.667l0,0c10.24,1.707,17.067,11.093,17.067,21.333v7.68c0,8.533-5.973,17.067-14.507,19.627
		C345.238,406.674,306.838,418.62,262.464,418.62z M236.864,399.847c52.907,5.973,100.693-8.533,119.467-14.507
		c1.707-0.853,2.56-1.707,2.56-3.413v-7.68c0-1.707-1.707-3.413-3.413-4.267l0,0c-140.8-26.453-198.827-76.8-223.573-114.347
		c-25.6-40.107-19.627-71.68-18.773-75.093c2.56-11.947-2.56-31.573-4.267-38.4c-0.853-2.56-1.707-5.12-1.707-7.68
		c0,0.853,0,2.56,0,3.413s0.853,29.867-9.387,46.933c-0.853,0.853-13.653,23.04-4.267,61.44
		C102.038,282.94,134.464,339.26,236.864,399.847z"/>
</g>
</svg>